name Walk10.mot
datacolumns 19
datarows 22
range 1.39000000 1.41100000
endheader

                time	   L_ground_force_vx	   L_ground_force_vy	   L_ground_force_vz	   L_ground_force_px	   L_ground_force_py	   L_ground_force_pz	   R_ground_force_vx	   R_ground_force_vy	   R_ground_force_vz	   R_ground_force_px	   R_ground_force_py	   R_ground_force_pz	   L_ground_torque_x	   L_ground_torque_y	   L_ground_torque_z	   R_ground_torque_x	   R_ground_torque_y	   R_ground_torque_z	
          1.39000000	         15.48694470	         65.95322249	         -6.84599267	         -0.57862311	          0.00000000	          0.06196388	          0.00000000	          0.00000000	          0.00000000	          0.00000000	          0.00000000	          0.00000000	          0.00000000	          0.62687088	          0.00000000	          0.00000000	          0.00000000	          0.00000000	
          1.39100000	         16.68417396	         71.95166990	         -7.00719199	         -0.55588718	          0.00000000	          0.05196922	          0.00000000	          0.00000000	          0.00000000	          0.00000000	          0.00000000	          0.00000000	          0.00000000	          0.62477268	          0.00000000	          0.00000000	          0.00000000	          0.00000000	
          1.39200000	         17.93022644	         81.53432901	         -7.21485536	         -0.52592848	          0.00000000	          0.04027974	          0.00000000	          0.00000000	          0.00000000	          0.00000000	          0.00000000	          0.00000000	          0.00000000	          0.63324843	          0.00000000	          0.00000000	          0.00000000	          0.00000000	
          1.39300000	         19.35448619	         98.95146426	         -7.46859972	         -0.48537026	          0.00000000	          0.02580844	          0.00000000	          0.00000000	          0.00000000	          0.00000000	          0.00000000	          0.00000000	          0.00000000	          0.64877255	          0.00000000	          0.00000000	          0.00000000	          0.00000000	
          1.39400000	         21.11577171	        128.15255454	         -7.69767295	         -0.44124938	          0.00000000	          0.01056730	          0.00000000	          0.00000000	          0.00000000	          0.00000000	          0.00000000	          0.00000000	          0.00000000	          0.67995555	          0.00000000	          0.00000000	          0.00000000	          0.00000000	
          1.39500000	         23.38376667	        171.46912149	         -7.81887276	         -0.40294432	          0.00000000	         -0.00263577	          0.00000000	          0.00000000	          0.00000000	          0.00000000	          0.00000000	          0.00000000	          0.00000000	          0.73973503	          0.00000000	          0.00000000	          0.00000000	          0.00000000	
          1.39600000	         26.29904164	        227.89052605	         -7.83175931	         -0.37464291	          0.00000000	         -0.01244599	          0.00000000	          0.00000000	          0.00000000	          0.00000000	          0.00000000	          0.00000000	          0.00000000	          0.82709294	          0.00000000	          0.00000000	          0.00000000	          0.00000000	
          1.39700000	         29.84174407	        291.91629898	         -7.91752132	         -0.35571279	          0.00000000	         -0.01895743	          0.00000000	          0.00000000	          0.00000000	          0.00000000	          0.00000000	          0.00000000	          0.00000000	          0.92947789	          0.00000000	          0.00000000	          0.00000000	          0.00000000	
          1.39800000	         33.67054754	        354.51414023	         -8.42969609	         -0.34382880	          0.00000000	         -0.02285892	          0.00000000	          0.00000000	          0.00000000	          0.00000000	          0.00000000	          0.00000000	          0.00000000	          1.03759311	          0.00000000	          0.00000000	          0.00000000	          0.00000000	
          1.39900000	         37.13181109	        406.48617944	         -9.74022434	         -0.33677615	          0.00000000	         -0.02490835	          0.00000000	          0.00000000	          0.00000000	          0.00000000	          0.00000000	          0.00000000	          0.00000000	          1.15443219	          0.00000000	          0.00000000	          0.00000000	          0.00000000	
          1.40000000	         39.48700489	        442.19840579	        -12.06115472	         -0.33291813	          0.00000000	         -0.02575040	          0.00000000	          0.00000000	          0.00000000	          0.00000000	          0.00000000	          0.00000000	          0.00000000	          1.29467556	          0.00000000	          0.00000000	          0.00000000	          0.00000000	
          1.40100000	         40.19838873	        461.12774108	        -15.34910469	         -0.33113308	          0.00000000	         -0.02586933	          0.00000000	          0.00000000	          0.00000000	          0.00000000	          0.00000000	          0.00000000	          0.00000000	          1.47551388	          0.00000000	          0.00000000	          0.00000000	          0.00000000	
          1.40200000	         39.11007006	        466.74887529	        -19.32226036	         -0.33064516	          0.00000000	         -0.02559389	          0.00000000	          0.00000000	          0.00000000	          0.00000000	          0.00000000	          0.00000000	          0.00000000	          1.70557117	          0.00000000	          0.00000000	          0.00000000	          0.00000000	
          1.40300000	         36.43647946	        464.23234175	        -23.57409009	         -0.33088465	          0.00000000	         -0.02513231	          0.00000000	          0.00000000	          0.00000000	          0.00000000	          0.00000000	          0.00000000	          0.00000000	          1.98400632	          0.00000000	          0.00000000	          0.00000000	          0.00000000	
          1.40400000	         32.59493400	        458.52486452	        -27.71131692	         -0.33140820	          0.00000000	         -0.02461672	          0.00000000	          0.00000000	          0.00000000	          0.00000000	          0.00000000	          0.00000000	          0.00000000	          2.30631493	          0.00000000	          0.00000000	          0.00000000	          0.00000000	
          1.40500000	         28.01654914	        453.38528195	        -31.44605911	         -0.33187529	          0.00000000	         -0.02413524	          0.00000000	          0.00000000	          0.00000000	          0.00000000	          0.00000000	          0.00000000	          0.00000000	          2.66261945	          0.00000000	          0.00000000	          0.00000000	          0.00000000	
          1.40600000	         23.01639283	        451.12633317	        -34.62533187	         -0.33206053	          0.00000000	         -0.02374500	          0.00000000	          0.00000000	          0.00000000	          0.00000000	          0.00000000	          0.00000000	          0.00000000	          3.03179663	          0.00000000	          0.00000000	          0.00000000	          0.00000000	
          1.40700000	         17.74080888	        452.69753792	        -37.22186055	         -0.33186172	          0.00000000	         -0.02347853	          0.00000000	          0.00000000	          0.00000000	          0.00000000	          0.00000000	          0.00000000	          0.00000000	          3.38638353	          0.00000000	          0.00000000	          0.00000000	          0.00000000	
          1.40800000	         12.19131032	        457.95541874	        -39.31130583	         -0.33127709	          0.00000000	         -0.02334794	          0.00000000	          0.00000000	          0.00000000	          0.00000000	          0.00000000	          0.00000000	          0.00000000	          3.70908125	          0.00000000	          0.00000000	          0.00000000	          0.00000000	
          1.40900000	          6.29213904	        466.06921043	        -41.02971217	         -0.33037299	          0.00000000	         -0.02334281	          0.00000000	          0.00000000	          0.00000000	          0.00000000	          0.00000000	          0.00000000	          0.00000000	          4.00183575	          0.00000000	          0.00000000	          0.00000000	          0.00000000	
          1.41000000	         -0.04689446	        475.96095119	        -42.51683745	         -0.32925681	          0.00000000	         -0.02342161	          0.00000000	          0.00000000	          0.00000000	          0.00000000	          0.00000000	          0.00000000	          0.00000000	          4.27829198	          0.00000000	          0.00000000	          0.00000000	          0.00000000	
          1.41100000	         -6.89575300	        486.61227985	        -43.87749858	         -0.32804695	          0.00000000	         -0.02351736	          0.00000000	          0.00000000	          0.00000000	          0.00000000	          0.00000000	          0.00000000	          0.00000000	          4.55509460	          0.00000000	          0.00000000	          0.00000000	          0.00000000	
